<!-- Generator: Adobe Illustrator 22.0.1, SVG Export Plug-In  -->
<svg version="1.1"
	 xmlns="http://www.w3.org/2000/svg" xmlns:xlink="http://www.w3.org/1999/xlink" xmlns:a="http://ns.adobe.com/AdobeSVGViewerExtensions/3.0/"
	 x="0px" y="0px" width="23.4px" height="32px" viewBox="0 0 11.7 16" style="enable-background:new 0 0 11.7 16;"
	 xml:space="preserve">
<style type="text/css">
</style>
<defs>
</defs>
<path class="logo" d="M5.9,16c-0.3,0-0.6-0.3-0.6-0.6c0-0.3-0.4-0.6-1.1-1.1C2.9,13.4,0.8,12,0.9,8.2c0-0.3,0.3-0.6,0.6-0.6
	c0,0,0,0,0,0c0.3,0,0.6,0.3,0.6,0.6c0,3.2,1.5,4.3,2.8,5.1c0.4,0.2,0.7,0.5,1,0.8c0.2-0.2,0.5-0.4,0.8-0.7c1.2-0.9,2.9-2.2,3-6.2
	c-1.3-0.3-5.1-1-8.5,0.1C1,7.4,0.7,7.3,0.5,7.1c0-0.1-0.9-1.4-0.3-2.7C0.7,3.2,2,2.5,4,2.2c0,0,0.1,0,0.1,0c0.1,0,1-0.1,1.3-1.7
	C5.4,0.2,5.6,0,5.9,0c0.3,0,0.5,0.2,0.6,0.5c0,0,0.1,0.5,0.3,1C7.1,2,7.4,2.3,7.6,2.3c0.3,0,2.9,0.3,3.8,1.6c0.3,0.5,0.4,1,0.2,1.6
	c-0.1,0.3-0.4,0.5-0.7,0.4c-0.3-0.1-0.5-0.4-0.4-0.7c0.1-0.2,0-0.4-0.1-0.6c-0.2-0.3-0.8-0.7-1.7-0.9C8.1,3.5,7.5,3.5,7.5,3.5
	C6.8,3.4,6.3,2.9,6,2.3C5.8,2.6,5.5,2.9,5.2,3.1C4.7,3.4,4.3,3.4,4.1,3.4C2.6,3.6,1.6,4.1,1.3,4.8C1.1,5.2,1.2,5.7,1.3,6
	c4.4-1.1,8.9,0.1,9.1,0.2c0.3,0.1,0.4,0.3,0.4,0.6c0,2.2-0.4,3.9-1.2,5.3c-0.7,1.2-1.6,1.8-2.3,2.3c-0.6,0.4-0.9,0.7-0.9,1
	C6.5,15.7,6.2,16,5.9,16z"/>
</svg>