<svg xmlns="http://www.w3.org/2000/svg" viewBox="140 1621 232.396 63.765">
  <defs>
    <style>
      .cls-1 {
        fill: #fff;
      }
    </style>
  </defs>
  <g id="Symbol_5_1" data-name="Symbol 5 – 1" transform="translate(0 1568)">
    <path id="Path_46" data-name="Path 46" class="cls-1" d="M76.9,33.5c-.3-.4-2.3-.3-2.3-.3s-.3-.6-.8-.6a22.357,22.357,0,0,0-5,2.5s-4.7,1.6-7.9-8.9c0,0,2.6-1.7,3-2.1a7.732,7.732,0,0,1,2.3-.8c1.1-.1,4.8-.3,5-2.1a4.113,4.113,0,0,1-.5-1.5c0-.6.7-.5,1.3-1.2a3.384,3.384,0,0,0,.7-1.8s1.2-1.1,1.2-1.7-.3-1.2-1.5-1.7-5.3-2.6-5.3-2.6a18.987,18.987,0,0,0-7.3-.2s-3.2-3.2-4.4-3.3c-1.2,0-1.6.4-1.8,1.1a2.378,2.378,0,0,0-1.8.4c-.6.6-.8,5.8,1.5,7,0,0-2.7,4.3-3.5,4.6s-2.1,1.4-3,1.9-6.3,2.5-7.2,3A22.429,22.429,0,0,0,28.2,37.8s3-9.2,10.9-13.5c0,0,11.6-13-9.4-22.2S-5.7,17,2.2,24.2c0,0,2.8,1.9,10.5-2.7s8.1-6.3,10.1-5.1S14,30.8,14,30.8,3.1,49.2,22.3,55.2a24.418,24.418,0,0,1,6.6,4.7s.2,2.5,2.5,2.6,8.5,0,9.2,0,1.4.7,2.7.4c1.2-.4,2.8.4,3-1.2a.891.891,0,0,1,1.1-.3s-.6-1.5-1.5-1.6a12.4,12.4,0,0,0,3.4,0,1.22,1.22,0,0,0,.4-1.9c-.4-.3-2.3-.2-2.8-.5a3.317,3.317,0,0,0-2.2,0,2.653,2.653,0,0,0-1.1-.2,2.469,2.469,0,0,0-1.3.9l-3.5.2s7.7-3.4,9.3-15a11.066,11.066,0,0,1,3.7-2.4s2.2.9,5,1.7c2.8.7,4.4,1.9,8.3,1.4,0,0,3.7.6,5.1,1.8A5.655,5.655,0,0,0,73,47.1s-.3-1.7-1.1-2a6.011,6.011,0,0,1,2.1.7,1.22,1.22,0,0,0,1.2.1s.7-.9-.2-1.3c0,0,1.1-.2,1.3-.6,0,0-.6-.9-1.3-1s-3.3-.9-3.3-.9,1.2-.4,1.3-.7a1.08,1.08,0,0,1,.8-.4,3.156,3.156,0,0,0-1.6-.6H69.9a2.8,2.8,0,0,0-.8.5,8.807,8.807,0,0,0-1.5-.2A5.861,5.861,0,0,1,65,39.3a8.777,8.777,0,0,1,3.9-.3,3.038,3.038,0,0,0,1.6-.9,10.916,10.916,0,0,1,2.8-.8c.9,0,2.9.9,3.5.4s.3-2.2.3-2.2S77.3,33.9,76.9,33.5ZM63.6,14.2a1.682,1.682,0,0,1,1.8.8c-.6.2-.4.9-1.6,1.1a1.44,1.44,0,0,1-1.6-.9S62.3,14.4,63.6,14.2Z" transform="translate(139.996 52.965)"/>
    <g id="Group_83" data-name="Group 83" transform="translate(139.996 52.965)">
      <g id="Group_81" data-name="Group 81">
        <path id="Path_47" data-name="Path 47" class="cls-1" d="M89.5,3h24.8v7.5H97.6V18H113v7.5H97.6V40H89.4V3Z"/>
        <path id="Path_48" data-name="Path 48" class="cls-1" d="M118.2,21.5a20.374,20.374,0,0,1,1.5-8,16.635,16.635,0,0,1,4.2-6.1,20.255,20.255,0,0,1,6.3-3.9,23.557,23.557,0,0,1,16,0,18.558,18.558,0,0,1,6.3,3.9,17.511,17.511,0,0,1,4.2,6.1,20.728,20.728,0,0,1,1.5,8,20.374,20.374,0,0,1-1.5,8,16.635,16.635,0,0,1-4.2,6.1,18.558,18.558,0,0,1-6.3,3.9,23.557,23.557,0,0,1-16,0,18.558,18.558,0,0,1-6.3-3.9,17.511,17.511,0,0,1-4.2-6.1A20.373,20.373,0,0,1,118.2,21.5Zm8.4,0a15.1,15.1,0,0,0,.8,4.8,11.388,11.388,0,0,0,2.3,3.8,10.143,10.143,0,0,0,3.6,2.5,12.722,12.722,0,0,0,9.4,0,10.143,10.143,0,0,0,3.6-2.5,10.476,10.476,0,0,0,2.3-3.8,14.194,14.194,0,0,0,.8-4.8,15.1,15.1,0,0,0-.8-4.8,10.476,10.476,0,0,0-2.3-3.8,10.143,10.143,0,0,0-3.6-2.5,12.722,12.722,0,0,0-9.4,0,10.143,10.143,0,0,0-3.6,2.5,10.476,10.476,0,0,0-2.3,3.8A15.1,15.1,0,0,0,126.6,21.5Z"/>
        <path id="Path_49" data-name="Path 49" class="cls-1" d="M163.6,3h11.1l15.7,25.7h.1V3h8.2V40H188L171.9,13.7h-.1V40h-8.2V3Z"/>
        <path id="Path_50" data-name="Path 50" class="cls-1" d="M213.4,10.3H202.8V3h29.3v7.2H221.5V40h-8.2V10.3Z"/>
      </g>
      <g id="Group_82" data-name="Group 82">
        <path id="Path_51" data-name="Path 51" class="cls-1" d="M97.5,51a2.55,2.55,0,0,0-1.2-.8,3.926,3.926,0,0,0-1.4-.3,2.2,2.2,0,0,0-.8.1c-.3.1-.5.2-.8.3a2.651,2.651,0,0,0-.6.5,1.077,1.077,0,0,0-.2.8,1.29,1.29,0,0,0,.5,1.1,4.58,4.58,0,0,0,1.4.7,12.09,12.09,0,0,0,1.8.5,7.1,7.1,0,0,1,1.8.8,3.76,3.76,0,0,1,1.4,1.4,3.921,3.921,0,0,1,.6,2.3,6.042,6.042,0,0,1-.5,2.4,4.573,4.573,0,0,1-1.4,1.7,6.256,6.256,0,0,1-2,1,9.862,9.862,0,0,1-2.4.3,8.807,8.807,0,0,1-2.9-.5,6.258,6.258,0,0,1-2.5-1.6l2.5-2.8A3.007,3.007,0,0,0,92.2,60a3.533,3.533,0,0,0,1.7.4,2.769,2.769,0,0,0,.9-.1,6.89,6.89,0,0,0,.8-.3,2.651,2.651,0,0,0,.6-.5,1.077,1.077,0,0,0,.2-.8,1.425,1.425,0,0,0-.6-1.2,4.58,4.58,0,0,0-1.4-.7l-1.8-.6a7.5,7.5,0,0,1-1.8-.8,4.357,4.357,0,0,1-1.4-1.3,3.593,3.593,0,0,1-.6-2.2,5.555,5.555,0,0,1,.5-2.3A3.638,3.638,0,0,1,90.7,48a6.256,6.256,0,0,1,2-1,8.524,8.524,0,0,1,2.3-.3,8.422,8.422,0,0,1,2.7.4,6.538,6.538,0,0,1,2.3,1.3Z"/>
        <path id="Path_52" data-name="Path 52" class="cls-1" d="M124.9,63.3h-9.8a9.893,9.893,0,0,1-3.5-.6,8.541,8.541,0,0,1-2.8-1.6,6.765,6.765,0,0,1-1.8-2.6,9.48,9.48,0,0,1-.7-3.5,7.973,7.973,0,0,1,.7-3.4,10,10,0,0,1,1.8-2.6,9.482,9.482,0,0,1,2.7-1.7,9.933,9.933,0,0,1,6.8,0A7.341,7.341,0,0,1,121,49a6.765,6.765,0,0,1,1.8,2.6,7.391,7.391,0,0,1,.7,3.4,9.853,9.853,0,0,1-.2,1.7,5.228,5.228,0,0,1-.6,1.6,6.42,6.42,0,0,1-1,1.3,7.1,7.1,0,0,1-1.4,1h4.5v2.7ZM110,54.9a4.477,4.477,0,0,0,.4,2,5.332,5.332,0,0,0,2.7,2.7,4.712,4.712,0,0,0,3.8,0,5.332,5.332,0,0,0,2.7-2.7,5.2,5.2,0,0,0,0-4,5.332,5.332,0,0,0-2.7-2.7,4.712,4.712,0,0,0-3.8,0,5.332,5.332,0,0,0-2.7,2.7A7.106,7.106,0,0,0,110,54.9Z"/>
        <path id="Path_53" data-name="Path 53" class="cls-1" d="M145,57a8.031,8.031,0,0,1-.4,2.7,5.71,5.71,0,0,1-1.3,2.1,5.957,5.957,0,0,1-2.1,1.4,8.532,8.532,0,0,1-3,.5,9.427,9.427,0,0,1-3-.5,4.581,4.581,0,0,1-2.1-1.4,5.71,5.71,0,0,1-1.3-2.1,7.664,7.664,0,0,1-.4-2.7V47H135v9.8a5.9,5.9,0,0,0,.2,1.4,4.129,4.129,0,0,0,.7,1.1,2.286,2.286,0,0,0,1,.7,2.967,2.967,0,0,0,2.6,0,3.592,3.592,0,0,0,1-.7,4.129,4.129,0,0,0,.7-1.1,3.178,3.178,0,0,0,.2-1.4V47H145Z"/>
        <path id="Path_54" data-name="Path 54" class="cls-1" d="M152.8,47h3.6V63.2h-3.6Z"/>
        <path id="Path_55" data-name="Path 55" class="cls-1" d="M164.2,47h6.3a16.413,16.413,0,0,1,2.3.2,5.45,5.45,0,0,1,1.9.8,3.738,3.738,0,0,1,1.3,1.5,5.356,5.356,0,0,1,.5,2.4,4.764,4.764,0,0,1-.9,2.9,4.043,4.043,0,0,1-2.6,1.5l4.1,6.8h-4.3l-3.4-6.5h-1.8v6.5H164V47Zm3.6,6.8h3.1a2.958,2.958,0,0,0,1-.2,1.794,1.794,0,0,0,.7-.5,1.493,1.493,0,0,0,.3-1,1.689,1.689,0,0,0-.3-1l-.6-.6-.9-.3c-.3,0-.7-.1-1-.1h-2.3Z"/>
        <path id="Path_56" data-name="Path 56" class="cls-1" d="M183.6,47h6.3a16.413,16.413,0,0,1,2.3.2,5.45,5.45,0,0,1,1.9.8,3.738,3.738,0,0,1,1.3,1.5,5.356,5.356,0,0,1,.5,2.4,4.764,4.764,0,0,1-.9,2.9,4.043,4.043,0,0,1-2.6,1.5l4.1,6.8h-4.3l-3.4-6.5H187v6.5h-3.6V47Zm3.6,6.8h3.1a2.958,2.958,0,0,0,1-.2,1.794,1.794,0,0,0,.7-.5,1.493,1.493,0,0,0,.3-1,1.689,1.689,0,0,0-.3-1l-.6-.6-.9-.3c-.3,0-.7-.1-1-.1h-2.3Z"/>
        <path id="Path_57" data-name="Path 57" class="cls-1" d="M203.2,47h11v3.3h-7.4v3h7v3.3h-7V60h7.9v3.3H203.3V47Z"/>
        <path id="Path_58" data-name="Path 58" class="cls-1" d="M222.2,47h3.6V60h6.6v3.3H222.2V47Z"/>
      </g>
    </g>
  </g>
</svg>
