<!-- Generator: Adobe Illustrator 22.0.1, SVG Export Plug-In  -->
<svg version="1.1"
	 xmlns="http://www.w3.org/2000/svg" xmlns:xlink="http://www.w3.org/1999/xlink" xmlns:a="http://ns.adobe.com/AdobeSVGViewerExtensions/3.0/"
	 x="0px" y="0px" viewBox="0 0 16 16" style="enable-background:new 0 0 16 16;" xml:space="preserve">
<style type="text/css">
	.st0{fill:none;}
</style>
<defs>
</defs>
<rect class="st0" width="16" height="16"/>
<g>
	<path d="M1.2,13.1h1.4V6.9H1.1V5.1h1.5V4.6C2.6,1.4,5.2,1,6.5,1c0.6,0,1,0.1,1,0.1v2c0,0-0.3-0.1-0.8-0.1C6.2,3,5.1,3.1,5.1,4.6
		v0.5h4.5V4.6c0-3.2,2.6-3.6,3.9-3.6c0.6,0,1,0.1,1,0.1v2c0,0-0.3-0.1-0.8-0.1c-0.6,0-1.7,0.1-1.7,1.6v0.5h2.3v1.8h-2.3v6.2h1.7V15
		H8.2v-1.9h1.4V6.9H5.1v6.2h1.7V15H1.2V13.1z"/>
</g>
</svg>
