<!-- Generator: Adobe Illustrator 22.0.1, SVG Export Plug-In  -->
<svg version="1.1"
	 xmlns="http://www.w3.org/2000/svg" xmlns:xlink="http://www.w3.org/1999/xlink" xmlns:a="http://ns.adobe.com/AdobeSVGViewerExtensions/3.0/"
	 x="0px" y="0px" width="16px" height="16px" viewBox="0 0 16 16" style="enable-background:new 0 0 16 16;" xml:space="preserve">
<style type="text/css">
	.st0{clip-path:url(#SVGID_2_);fill:#231F20;}
	.st1{fill:none;}
	.st2{clip-path:url(#SVGID_4_);fill:#231F20;}
</style>
<defs>
</defs>
<g>
	<defs>
		<path id="SVGID_1_" d="M12.5,1h-9c-0.6,0-1,0.4-1,1v12c0,0.6,0.4,1,1,1h9c0.6,0,1-0.4,1-1V2C13.5,1.4,13.1,1,12.5,1z M8,14.3
			c-0.6,0-1-0.4-1-1c0-0.6,0.4-1,1-1s1,0.4,1,1C9,13.9,8.6,14.3,8,14.3z M12.5,11.7h-9V2h9V11.7z"/>
	</defs>
	<clipPath id="SVGID_2_">
		<use xlink:href="#SVGID_1_"  style="overflow:visible;"/>
	</clipPath>
	<rect y="0" class="st0" width="16" height="16"/>
</g>
<rect x="2" class="st1" width="12" height="16"/>
</svg>
