<svg xmlns="http://www.w3.org/2000/svg" xmlns:xlink="http://www.w3.org/1999/xlink" viewBox="24 24">
  <defs>
    <style>
      .cls-1 {
        fill: none;
      }

      .cls-2 {
        clip-path: url(#clip-path);
      }

      .cls-3 {
        fill: #67358b;
      }
    </style>
    <clipPath id="clip-path">
      <path id="Path_60" data-name="Path 60" class="cls-1" d="M0,15.36H23.039v-24H0Z">
    </clipPath>
  </defs>
  <g id="Group_98" data-name="Group 98" class="cls-2">
    <g id="Group_97" data-name="Group 97">
      <path id="Path_59" data-name="Path 59" class="cls-3" d="M13.931,0H-6.564A1.3,1.3,0,0,0-7.836,1.325v21.35A1.3,1.3,0,0,0-6.564,24H4.47V14.706h-3V11.083h3V8.414c0-3.1,1.817-4.789,4.472-4.789a23.673,23.673,0,0,1,2.683.142V7.008H9.783c-1.444,0-1.722.714-1.722,1.764v2.311H11.5l-.447,3.622H8.061V24h5.869A1.3,1.3,0,0,0,15.2,22.675V1.325A1.3,1.3,0,0,0,13.931,0">
    </g>
  </g>
</svg>
