<!-- Generator: Adobe Illustrator 22.0.1, SVG Export Plug-In  -->
<svg version="1.1"
	 xmlns="http://www.w3.org/2000/svg" xmlns:xlink="http://www.w3.org/1999/xlink" xmlns:a="http://ns.adobe.com/AdobeSVGViewerExtensions/3.0/"
	 x="0px" y="0px" viewBox="0 0 8 14" style="enable-background:new 0 0 8 14;" xml:space="preserve">
<style type="text/css">
	.st0{fill:#231F20;}
</style>
<defs>
</defs>
<path class="st0" d="M8,4c0-2.2-1.8-4-4-4S0,1.8,0,4c0,1.5,0.8,2.8,2,3.4V14h2l2-2v-1l-1-1l1-1V7.4C7.2,6.8,8,5.5,8,4z M4,1
	c0.6,0,1,0.4,1,1c0,0.6-0.4,1-1,1S3,2.6,3,2C3,1.4,3.4,1,4,1z"/>
</svg>
