<!-- Generator: Adobe Illustrator 22.0.1, SVG Export Plug-In  -->
<svg version="1.1"
	 xmlns="http://www.w3.org/2000/svg" xmlns:xlink="http://www.w3.org/1999/xlink" xmlns:a="http://ns.adobe.com/AdobeSVGViewerExtensions/3.0/"
	 x="0px" y="0px" width="16px" height="16px" viewBox="0 0 16 16" style="enable-background:new 0 0 16 16;" xml:space="preserve">
<style type="text/css">
	.st0{clip-path:url(#SVGID_2_);fill:#231F20;}
	.st1{fill:none;}
	.st2{clip-path:url(#SVGID_4_);fill:#231F20;}
</style>
<defs>
</defs>
<g>
	<defs>
		<path id="SVGID_1_" d="M11.7,1H4.3h0c-0.6,0-1,0.4-1,1v0.5c0,0,0,0,0,0V14c0,0.5,0.3,0.8,0.8,1v0h0.2h7.3h0.2v0
			c0.4-0.1,0.8-0.5,0.8-1V2.5V2C12.7,1.4,12.2,1,11.7,1z M7.3,1.9h2.9c0.2,0,0.4,0.2,0.4,0.4s-0.2,0.4-0.4,0.4H7.3
			c-0.2,0-0.4-0.2-0.4-0.4S7.1,1.9,7.3,1.9z M5.8,1.9C6,1.9,6.1,2,6.1,2.2S6,2.6,5.8,2.6S5.4,2.5,5.4,2.2S5.6,1.9,5.8,1.9z M8,14.3
			c-0.6,0-1-0.4-1-1c0-0.6,0.4-1,1-1s1,0.4,1,1C9,13.9,8.6,14.3,8,14.3z M11.7,11.7H4.3V3.5h7.3V11.7z"/>
	</defs>
	<clipPath id="SVGID_2_">
		<use xlink:href="#SVGID_1_"  style="overflow:visible;"/>
	</clipPath>
	<rect y="0" class="st0" width="16" height="16"/>
</g>
<rect x="3" class="st1" width="10" height="16"/>
</svg>
