<!-- Generator: Adobe Illustrator 22.0.1, SVG Export Plug-In  -->
<svg version="1.1"
	 xmlns="http://www.w3.org/2000/svg" xmlns:xlink="http://www.w3.org/1999/xlink" xmlns:a="http://ns.adobe.com/AdobeSVGViewerExtensions/3.0/"
	 x="0px" y="0px" viewBox="0 0 16 16" style="enable-background:new 0 0 16 16;" xml:space="preserve">
<style type="text/css">
	.st0{fill:none;}
	.icon-fill{fill:#231F20;}
</style>
<defs>
</defs>
<g>
	<rect y="0" class="st0" width="16" height="16"/>
	<path class="st1" d="M15.6,13.7l-3.4-3.4c0.7-1.1,1.1-2.3,1.1-3.7c0-3.7-3-6.7-6.7-6.7S0,3,0,6.7s3,6.7,6.7,6.7
		c1.4,0,2.6-0.4,3.7-1.1l3.4,3.4L15.6,13.7z M6.7,10.7c-2.2,0-4-1.8-4-4s1.8-4,4-4s4,1.8,4,4S8.9,10.7,6.7,10.7z"/>
</g>
<rect class="st0" width="16" height="16"/>
</svg>
