<!-- Generator: Adobe Illustrator 22.0.1, SVG Export Plug-In  -->
<svg version="1.1"
	 xmlns="http://www.w3.org/2000/svg" xmlns:xlink="http://www.w3.org/1999/xlink" xmlns:a="http://ns.adobe.com/AdobeSVGViewerExtensions/3.0/"
	 x="0px" y="0px" viewBox="0 0 16 16" style="enable-background:new 0 0 16 16;" xml:space="preserve">
<style type="text/css">
	.st0{clip-path:url(#SVGID_2_);fill:#231F20;}
	.st1{clip-path:url(#SVGID_4_);fill:#231F20;}
</style>
<defs>
</defs>
<g>
	<defs>
		<path id="SVGID_1_" d="M16,7.5c-0.3-4-3.5-7.2-7.5-7.4v0h-1v0C3.5,0.3,0.3,3.5,0,7.5h0v1.1h0c0.3,4,3.5,7.2,7.5,7.4v0h1v0
			c4-0.2,7.2-3.4,7.5-7.4h0L16,7.5L16,7.5z M12.5,7.5c0-0.8-0.1-1.5-0.3-2.2h2.2c0.3,0.7,0.5,1.4,0.5,2.2H12.5z M10.8,4.2H8.5v-3
			C9.5,1.7,10.3,2.8,10.8,4.2z M7.5,1.2v3H5.2C5.7,2.8,6.5,1.7,7.5,1.2z M7.5,5.2v2.2h-3c0-0.8,0.1-1.5,0.3-2.2H7.5z M7.5,8.5v2.2
			H4.8c-0.2-0.7-0.3-1.4-0.3-2.2H7.5z M7.5,11.8v3c-1-0.5-1.8-1.6-2.3-3H7.5z M8.5,14.8v-3h2.3C10.3,13.2,9.5,14.3,8.5,14.8z
			 M8.5,10.8V8.5h3c0,0.8-0.1,1.5-0.3,2.2H8.5z M8.5,7.5V5.2h2.7c0.2,0.7,0.3,1.4,0.3,2.2H8.5z M13.9,4.2h-2
			c-0.4-1.1-0.9-2.1-1.6-2.8C11.8,1.9,13.1,2.9,13.9,4.2z M5.7,1.4C5,2.1,4.5,3.1,4.1,4.2h-2C2.9,2.9,4.2,1.9,5.7,1.4z M1.6,5.2h2.2
			C3.6,5.9,3.5,6.7,3.5,7.5H1C1.1,6.7,1.3,5.9,1.6,5.2z M3.5,8.5c0,0.8,0.1,1.5,0.3,2.2H1.6C1.3,10.1,1.1,9.3,1,8.5H3.5z M2.1,11.8
			h2c0.4,1.1,0.9,2.1,1.6,2.8C4.2,14.1,2.9,13.1,2.1,11.8z M10.3,14.6c0.7-0.7,1.2-1.7,1.6-2.8h2C13.1,13.1,11.8,14.1,10.3,14.6z
			 M14.4,10.8h-2.2c0.2-0.7,0.3-1.4,0.3-2.2H15C14.9,9.3,14.7,10.1,14.4,10.8z"/>
	</defs>
	<clipPath id="SVGID_2_">
		<use xlink:href="#SVGID_1_"  style="overflow:visible;"/>
	</clipPath>
	<rect class="st0" width="16" height="16"/>
</g>
</svg>
